# xmcd
#
# Track frame offsets:
#	150
#	20868
#	37367
#	56400
#	76426
#	97329
#	115484
#
# Disc length: 1803 seconds
#
# Revision: 1
# Processed by: cddbd v1.5.2PL0 Copyright (c) Steve Scherf et al.
# Submitted via: audiograbber 1.83.01
#
DISCID=66070907
DTITLE=Jaime Wyatt - Felony Blues
DYEAR=2017
DGENRE=Country
TTITLE0=Wishing Well
TTITLE1=Your Loving Save Me (f Sam Outlaw)
TTITLE2=From Outer Space
TTITLE3=Wasco
TTITLE4=Giving Back the Best of Me
TTITLE5=Stone Hotel
TTITLE6=Misery and Gin
EXTD=
EXTT0=
EXTT1=
EXTT2=
EXTT3=
EXTT4=
EXTT5=
EXTT6=
PLAYORDER=
